<?xml version="1.0" encoding="iso-8859-1"?>
<!-- Generator: Adobe Illustrator 19.0.0, SVG Export Plug-In . SVG Version: 6.00 Build 0)  -->
<svg xmlns="http://www.w3.org/2000/svg" xmlns:xlink="http://www.w3.org/1999/xlink" version="1.1" id="Layer_1" x="0px" y="0px" viewBox="0 0 512 512" style="enable-background:new 0 0 512 512;" xml:space="preserve" width="512" height="512">
<g>
	<g>
		<path style="fill-rule:evenodd;clip-rule:evenodd;fill:#F9F9F9;" d="M62.084,440.397v41.512c0,10.995,8.981,20.006,19.971,20.006    h347.862c10.991,0,19.999-9.011,19.999-20.006V77.723h-47.647c-10.991,0-19.999-8.982-19.999-19.977V10.085H82.055H81.97    c-10.962,0.057-19.886,9.04-19.886,19.978v110.114V250.29v82.346V440.397z"/>
	</g>
	<g>
		<path style="fill-rule:evenodd;clip-rule:evenodd;fill:#C6C4C8;" d="M382.27,57.746c0,10.995,9.008,19.977,19.999,19.977h47.647    L382.27,10.085V57.746z"/>
	</g>
	<g>
		<path style="fill-rule:evenodd;clip-rule:evenodd;fill:#d36667;" d="M136.472,170.156v31.764h99.968v-31.764    c0-16.719-13.655-30.377-30.367-30.377h-19.46c-0.057,0-0.113,0-0.143,0c-0.056,0-0.113,0-0.141,0h-19.489    C150.125,139.779,136.472,153.438,136.472,170.156L136.472,170.156z"/>
	</g>
	<g>
		<path style="fill-rule:evenodd;clip-rule:evenodd;fill:#FFD4BE;" d="M151.004,104.302c0,19.552,15.778,35.392,35.325,35.477h0.141    h0.143c19.517-0.085,35.323-15.925,35.323-35.477c0-19.608-15.892-35.477-35.466-35.477c-16.062,0-29.602,10.655-33.993,25.248    C151.514,97.304,151.004,100.761,151.004,104.302L151.004,104.302z"/>
	</g>
	<g>
		<path d="M367.37,150.238h-39.46c-5.569,0-10.084,4.515-10.084,10.085c0,5.569,4.515,10.085,10.084,10.085h39.46    c5.569,0,10.084-4.516,10.084-10.085C377.454,154.753,372.939,150.238,367.37,150.238z"/>
		<path d="M367.37,189.852h-79.573c-5.569,0-10.083,4.515-10.083,10.085c0,5.569,4.514,10.085,10.083,10.085h79.573    c5.569,0,10.084-4.516,10.084-10.085C377.454,194.366,372.939,189.852,367.37,189.852z"/>
		<path d="M459.949,76.717c-0.227-2.295-1.272-4.497-2.904-6.126L389.401,2.955C387.526,1.08,384.922,0,382.27,0H82.055    C65.483,0,52,13.486,52,30.063V250.29c0,5.57,4.515,10.085,10.084,10.085c5.569,0,10.084-4.515,10.084-10.085V30.063    c0-5.455,4.435-9.893,9.887-9.893h290.13v37.576c0,16.576,13.495,30.062,30.083,30.062h37.563v394.101    c0,5.471-4.448,9.921-9.915,9.921H82.055c-5.452,0-9.887-4.45-9.887-9.921V332.636c0-5.57-4.515-10.085-10.084-10.085    c-5.569,0-10.084,4.515-10.084,10.085v149.273C52,498.501,65.483,512,82.055,512h347.862C446.504,512,460,498.501,460,481.909    V77.723c0-0.358-0.02-0.716-0.057-1.073C459.949,76.708,459.973,76.953,459.949,76.717    C459.924,76.46,459.982,77.05,459.949,76.717z M392.353,57.746V34.429l33.214,33.209h-23.299    C396.801,67.638,392.353,63.201,392.353,57.746z"/>
		<path fill="#5ac0c6" d="M198.499,254.306c-4.372-3.453-10.712-2.708-14.164,1.663l-32.978,41.753l-8.629-6.829    c-4.369-3.456-10.709-2.716-14.165,1.651c-3.455,4.368-2.716,10.71,1.651,14.166l16.543,13.091    c1.79,1.417,3.997,2.176,6.257,2.176c0.39,0,0.78-0.023,1.171-0.068c2.658-0.311,5.083-1.665,6.742-3.765l39.234-49.673    C203.614,264.101,202.87,257.759,198.499,254.306z"/>
		<path fill="#5ac0c6" d="M198.499,352.803c-4.372-3.452-10.712-2.707-14.164,1.663l-32.978,41.753l-8.629-6.828    c-4.369-3.456-10.709-2.717-14.165,1.65c-3.455,4.368-2.716,10.71,1.651,14.166l16.543,13.091c1.79,1.417,3.997,2.176,6.257,2.176    c0.39,0,0.781-0.022,1.171-0.068c2.658-0.311,5.083-1.666,6.742-3.766l39.234-49.672    C203.614,362.598,202.87,356.255,198.499,352.803z"/>
		<path d="M287.543,170.408h0.254c5.57,0,10.084-4.516,10.084-10.085c0-5.57-4.514-10.085-10.084-10.085h-0.254    c-5.569,0-10.084,4.515-10.084,10.085C277.459,165.893,281.974,170.408,287.543,170.408z"/>
		<path d="M62.084,300.499c5.569,0,10.084-4.515,10.084-10.085v-0.283c0-5.57-4.515-10.085-10.084-10.085    c-5.569,0-10.084,4.515-10.084,10.085v0.283C52,295.984,56.515,300.499,62.084,300.499z"/>
		<path d="M233.098,264.487c0,5.57,4.515,10.085,10.084,10.085h128.295c5.569,0,10.084-4.515,10.084-10.085    c0-5.57-4.515-10.085-10.084-10.085H243.182C237.612,254.402,233.098,258.917,233.098,264.487z"/>
		<path d="M371.477,301.808H243.182c-5.569,0-10.084,4.515-10.084,10.085c0,5.57,4.515,10.085,10.084,10.085h128.295    c5.569,0,10.084-4.515,10.084-10.085C381.56,306.323,377.046,301.808,371.477,301.808z"/>
		<path d="M371.477,349.356H243.182c-5.569,0-10.084,4.515-10.084,10.085s4.515,10.085,10.084,10.085h128.295    c5.569,0,10.084-4.515,10.084-10.085S377.046,349.356,371.477,349.356z"/>
		<path d="M371.477,396.762H243.182c-5.569,0-10.084,4.515-10.084,10.085c0,5.57,4.515,10.085,10.084,10.085h128.295    c5.569,0,10.084-4.515,10.084-10.085C381.56,401.277,377.046,396.762,371.477,396.762z"/>
		<path d="M367.37,109.887h-79.573c-5.569,0-10.083,4.515-10.083,10.085c0,5.57,4.514,10.085,10.083,10.085h79.573    c5.569,0,10.084-4.515,10.084-10.085C377.454,114.402,372.939,109.887,367.37,109.887z"/>
		<path d="M126.388,170.156v31.764c0,5.57,4.515,10.085,10.084,10.085h99.968c5.569,0,10.084-4.515,10.084-10.085v-31.764    c0-16.702-10.171-31.072-24.642-37.241c6.333-7.827,10.138-17.782,10.138-28.613c0-25.122-20.434-45.562-45.55-45.562    c-25.116,0-45.55,20.44-45.55,45.562c0,10.827,3.802,20.778,10.13,28.604C136.568,139.07,126.388,153.446,126.388,170.156z     M186.47,78.91c13.996,0,25.382,11.391,25.382,25.392c0,14.002-11.386,25.392-25.382,25.392    c-13.996,0-25.382-11.391-25.382-25.392C161.088,90.301,172.474,78.91,186.47,78.91z M146.556,170.156    c0-11.189,9.099-20.292,20.284-20.292h39.233c11.184,0,20.283,9.102,20.283,20.292v21.679h-79.8V170.156z"/>
	</g>
</g>















</svg>
