<?xml version="1.0" encoding="UTF-8"?>
<svg xmlns="http://www.w3.org/2000/svg" x="0px" y="0px"
width="50" height="50"
viewBox="0 0 172 172" style='width:2rem'><g transform=""><g fill="none" fill-rule="nonzero" stroke="none" stroke-width="1" stroke-linecap="butt" stroke-linejoin="miter" stroke-miterlimit="10" stroke-dasharray="" stroke-dashoffset="0" font-family="none" font-weight="none" font-size="none" text-anchor="none" ><path d="M0,172v-172h172v172z" fill="none"></path><path d="" fill="none"></path><g fill="#ffffff"><path d="M154.75969,27.46625c-0.90031,0.02688 -1.76031,0.40313 -2.39187,1.06156l-66.36781,66.36781l-66.36781,-66.36781c-0.645,-0.67188 -1.53187,-1.03469 -2.45906,-1.03469c-1.41094,0 -2.66063,0.84656 -3.19813,2.13656c-0.52406,1.30344 -0.215,2.78156 0.79281,3.7625l71.23219,71.23219l71.23219,-71.23219c1.02125,-0.98094 1.33031,-2.49937 0.79281,-3.80281c-0.55094,-1.30344 -1.84094,-2.15 -3.26531,-2.12313zM154.75969,72.18625c-0.90031,0.02688 -1.76031,0.40313 -2.39187,1.06156l-66.36781,66.36781l-66.36781,-66.36781c-0.645,-0.67188 -1.53187,-1.03469 -2.45906,-1.04813c-1.41094,0.01344 -2.66063,0.86 -3.19813,2.15c-0.52406,1.30344 -0.215,2.78156 0.79281,3.7625l71.23219,71.23219l71.23219,-71.23219c1.02125,-0.98094 1.33031,-2.49937 0.79281,-3.80281c-0.55094,-1.30344 -1.84094,-2.15 -3.26531,-2.12313z"></path></g></g></g></svg>